<mxfile host="65bd71144e">
    <diagram id="I0hdVwlQZiZu_8XNlH9b" name="Page-1">
        <mxGraphModel dx="810" dy="416" grid="1" gridSize="10" guides="1" tooltips="1" connect="1" arrows="1" fold="1" page="1" pageScale="1" pageWidth="1100" pageHeight="1700" math="0" shadow="0">
            <root>
                <mxCell id="0"/>
                <mxCell id="1" parent="0"/>
                <mxCell id="98" value="" style="rounded=0;whiteSpace=wrap;html=1;fillColor=#f5f5f5;fontColor=#333333;strokeColor=#666666;" parent="1" vertex="1">
                    <mxGeometry x="90" y="950" width="940" height="460" as="geometry"/>
                </mxCell>
                <mxCell id="9" value="wx_station" style="rounded=1;whiteSpace=wrap;html=1;fillColor=#A39000;fontColor=#000000;strokeColor=#B09500;" parent="1" vertex="1">
                    <mxGeometry x="580" y="965" width="110" height="50" as="geometry"/>
                </mxCell>
                <mxCell id="11" value="components" style="rounded=1;whiteSpace=wrap;html=1;fillColor=#C28309;fontColor=#000000;strokeColor=#BD7000;" parent="1" vertex="1">
                    <mxGeometry x="255" y="1055" width="110" height="50" as="geometry"/>
                </mxCell>
                <mxCell id="12" value="node_modules" style="rounded=1;whiteSpace=wrap;html=1;fillColor=#6DBF1A;fontColor=#ffffff;strokeColor=#2D7600;" parent="1" vertex="1">
                    <mxGeometry x="415" y="1055" width="110" height="50" as="geometry"/>
                </mxCell>
                <mxCell id="13" value="pages" style="rounded=1;whiteSpace=wrap;html=1;fillColor=#C95400;fontColor=#000000;strokeColor=#C73500;" parent="1" vertex="1">
                    <mxGeometry x="580" y="1055" width="110" height="50" as="geometry"/>
                </mxCell>
                <mxCell id="14" value="public" style="rounded=1;whiteSpace=wrap;html=1;fillColor=#006300;fontColor=#ffffff;strokeColor=#005700;" parent="1" vertex="1">
                    <mxGeometry x="745" y="1055" width="110" height="50" as="geometry"/>
                </mxCell>
                <mxCell id="15" value="styles" style="rounded=1;whiteSpace=wrap;html=1;fillColor=#157CAD;fontColor=#ffffff;strokeColor=#006EAF;" parent="1" vertex="1">
                    <mxGeometry x="905" y="1055" width="110" height="50" as="geometry"/>
                </mxCell>
                <mxCell id="16" value="Account.tsx" style="rounded=1;whiteSpace=wrap;html=1;fillColor=#E6E6E6;fontColor=#000000;strokeColor=#1A1A1A;" parent="1" vertex="1">
                    <mxGeometry x="105" y="1165" width="110" height="50" as="geometry"/>
                </mxCell>
                <mxCell id="17" value="Layout.tsx" style="rounded=1;whiteSpace=wrap;html=1;fillColor=#E6E6E6;strokeColor=#1A1A1A;fontColor=#000000;" parent="1" vertex="1">
                    <mxGeometry x="255" y="1165" width="110" height="50" as="geometry"/>
                </mxCell>
                <mxCell id="25" value="" style="endArrow=classic;html=1;exitX=1;exitY=0.5;exitDx=0;exitDy=0;entryX=0.25;entryY=1;entryDx=0;entryDy=0;strokeColor=#000000;" parent="1" source="17" target="12" edge="1">
                    <mxGeometry width="50" height="50" relative="1" as="geometry">
                        <mxPoint x="415" y="1195" as="sourcePoint"/>
                        <mxPoint x="465" y="1145" as="targetPoint"/>
                        <Array as="points">
                            <mxPoint x="443" y="1190"/>
                        </Array>
                    </mxGeometry>
                </mxCell>
                <mxCell id="32" value="_app.tsx" style="rounded=1;whiteSpace=wrap;html=1;fillColor=#E6E6E6;strokeColor=#1A1A1A;fontColor=#000000;" parent="1" vertex="1">
                    <mxGeometry x="580" y="1125" width="110" height="40" as="geometry"/>
                </mxCell>
                <mxCell id="33" value="_document.tsx" style="rounded=1;whiteSpace=wrap;html=1;fillStyle=auto;strokeWidth=1;fillColor=#E6E6E6;strokeColor=#1A1A1A;fontColor=#000000;" parent="1" vertex="1">
                    <mxGeometry x="580" y="1175" width="110" height="40" as="geometry"/>
                </mxCell>
                <mxCell id="34" value="index.tsx" style="rounded=1;whiteSpace=wrap;html=1;fillColor=#E6E6E6;strokeColor=#1A1A1A;fontColor=#000000;" parent="1" vertex="1">
                    <mxGeometry x="580" y="1225" width="110" height="40" as="geometry"/>
                </mxCell>
                <mxCell id="35" value="atm_pressure.png" style="rounded=1;whiteSpace=wrap;html=1;fillColor=#E6E6E6;fontColor=#000000;strokeColor=#1A1A1A;" parent="1" vertex="1">
                    <mxGeometry x="745" y="1125" width="110" height="40" as="geometry"/>
                </mxCell>
                <mxCell id="36" value="humidity.png" style="rounded=1;whiteSpace=wrap;html=1;fillColor=#E6E6E6;fontColor=#000000;strokeColor=#1A1A1A;" parent="1" vertex="1">
                    <mxGeometry x="745" y="1175" width="110" height="40" as="geometry"/>
                </mxCell>
                <mxCell id="37" value="soil_moisture.png" style="rounded=1;whiteSpace=wrap;html=1;fillColor=#E6E6E6;fontColor=#000000;strokeColor=#1A1A1A;" parent="1" vertex="1">
                    <mxGeometry x="745" y="1225" width="110" height="40" as="geometry"/>
                </mxCell>
                <mxCell id="38" value="temp.png" style="rounded=1;whiteSpace=wrap;html=1;fillColor=#E6E6E6;fontColor=#000000;strokeColor=#1A1A1A;" parent="1" vertex="1">
                    <mxGeometry x="745" y="1275" width="110" height="40" as="geometry"/>
                </mxCell>
                <mxCell id="39" value="wind_speed.png" style="rounded=1;whiteSpace=wrap;html=1;fillColor=#E6E6E6;fontColor=#000000;strokeColor=#1A1A1A;" parent="1" vertex="1">
                    <mxGeometry x="745" y="1325" width="110" height="40" as="geometry"/>
                </mxCell>
                <mxCell id="40" value="global.css" style="rounded=1;whiteSpace=wrap;html=1;fillColor=#E6E6E6;strokeColor=#1A1A1A;fontColor=#000000;" parent="1" vertex="1">
                    <mxGeometry x="905" y="1125" width="110" height="40" as="geometry"/>
                </mxCell>
                <mxCell id="42" value="recharts-test.tsx" style="rounded=1;whiteSpace=wrap;html=1;fillColor=#E6E6E6;strokeColor=#1A1A1A;fontColor=#000000;" parent="1" vertex="1">
                    <mxGeometry x="580" y="1275" width="110" height="40" as="geometry"/>
                </mxCell>
                <mxCell id="61" value="" style="endArrow=none;html=1;entryX=0;entryY=0.5;entryDx=0;entryDy=0;exitX=0.5;exitY=0;exitDx=0;exitDy=0;strokeColor=#000000;" parent="1" source="11" target="9" edge="1">
                    <mxGeometry width="50" height="50" relative="1" as="geometry">
                        <mxPoint x="455" y="1015" as="sourcePoint"/>
                        <mxPoint x="505" y="965" as="targetPoint"/>
                        <Array as="points">
                            <mxPoint x="310" y="990"/>
                        </Array>
                    </mxGeometry>
                </mxCell>
                <mxCell id="62" value="" style="endArrow=none;html=1;exitX=1;exitY=0.5;exitDx=0;exitDy=0;entryX=0.5;entryY=0;entryDx=0;entryDy=0;strokeColor=#000000;" parent="1" source="9" target="15" edge="1">
                    <mxGeometry width="50" height="50" relative="1" as="geometry">
                        <mxPoint x="775" y="1025" as="sourcePoint"/>
                        <mxPoint x="825" y="975" as="targetPoint"/>
                        <Array as="points">
                            <mxPoint x="960" y="990"/>
                        </Array>
                    </mxGeometry>
                </mxCell>
                <mxCell id="63" value="" style="endArrow=none;html=1;entryX=0;entryY=0.75;entryDx=0;entryDy=0;exitX=0.5;exitY=0;exitDx=0;exitDy=0;strokeColor=#000000;" parent="1" source="12" target="9" edge="1">
                    <mxGeometry width="50" height="50" relative="1" as="geometry">
                        <mxPoint x="495" y="1055" as="sourcePoint"/>
                        <mxPoint x="545" y="1005" as="targetPoint"/>
                        <Array as="points">
                            <mxPoint x="470" y="1002"/>
                        </Array>
                    </mxGeometry>
                </mxCell>
                <mxCell id="64" value="" style="endArrow=none;html=1;exitX=1;exitY=0.75;exitDx=0;exitDy=0;entryX=0.5;entryY=0;entryDx=0;entryDy=0;strokeColor=#000000;" parent="1" source="9" target="14" edge="1">
                    <mxGeometry width="50" height="50" relative="1" as="geometry">
                        <mxPoint x="1005" y="1005" as="sourcePoint"/>
                        <mxPoint x="1055" y="955" as="targetPoint"/>
                        <Array as="points">
                            <mxPoint x="800" y="1002"/>
                        </Array>
                    </mxGeometry>
                </mxCell>
                <mxCell id="65" value="" style="endArrow=none;html=1;exitX=0.5;exitY=0;exitDx=0;exitDy=0;entryX=0.5;entryY=1;entryDx=0;entryDy=0;strokeColor=#000000;" parent="1" source="13" target="9" edge="1">
                    <mxGeometry width="50" height="50" relative="1" as="geometry">
                        <mxPoint x="675" y="1065" as="sourcePoint"/>
                        <mxPoint x="725" y="1015" as="targetPoint"/>
                    </mxGeometry>
                </mxCell>
                <mxCell id="66" value="" style="endArrow=none;html=1;exitX=0.5;exitY=0;exitDx=0;exitDy=0;entryX=0.5;entryY=1;entryDx=0;entryDy=0;strokeColor=#000000;" parent="1" source="40" target="15" edge="1">
                    <mxGeometry width="50" height="50" relative="1" as="geometry">
                        <mxPoint x="1035" y="1035" as="sourcePoint"/>
                        <mxPoint x="1085" y="985" as="targetPoint"/>
                    </mxGeometry>
                </mxCell>
                <mxCell id="67" value="" style="endArrow=none;html=1;entryX=1;entryY=0.5;entryDx=0;entryDy=0;exitX=1;exitY=0.5;exitDx=0;exitDy=0;strokeColor=#000000;" parent="1" source="35" target="14" edge="1">
                    <mxGeometry width="50" height="50" relative="1" as="geometry">
                        <mxPoint x="1025" y="1285" as="sourcePoint"/>
                        <mxPoint x="1075" y="1235" as="targetPoint"/>
                        <Array as="points">
                            <mxPoint x="885" y="1145"/>
                            <mxPoint x="885" y="1080"/>
                        </Array>
                    </mxGeometry>
                </mxCell>
                <mxCell id="68" value="" style="endArrow=none;html=1;exitX=1;exitY=0.5;exitDx=0;exitDy=0;strokeColor=#000000;" parent="1" source="36" edge="1">
                    <mxGeometry width="50" height="50" relative="1" as="geometry">
                        <mxPoint x="965" y="1275" as="sourcePoint"/>
                        <mxPoint x="885" y="1135" as="targetPoint"/>
                        <Array as="points">
                            <mxPoint x="885" y="1195"/>
                        </Array>
                    </mxGeometry>
                </mxCell>
                <mxCell id="69" value="" style="endArrow=none;html=1;exitX=1;exitY=0.5;exitDx=0;exitDy=0;strokeColor=#000000;" parent="1" source="37" edge="1">
                    <mxGeometry width="50" height="50" relative="1" as="geometry">
                        <mxPoint x="895" y="1285" as="sourcePoint"/>
                        <mxPoint x="885" y="1185" as="targetPoint"/>
                        <Array as="points">
                            <mxPoint x="885" y="1245"/>
                        </Array>
                    </mxGeometry>
                </mxCell>
                <mxCell id="70" value="" style="endArrow=none;html=1;exitX=1;exitY=0.5;exitDx=0;exitDy=0;strokeColor=#000000;" parent="1" source="38" edge="1">
                    <mxGeometry width="50" height="50" relative="1" as="geometry">
                        <mxPoint x="885" y="1315" as="sourcePoint"/>
                        <mxPoint x="885" y="1235" as="targetPoint"/>
                        <Array as="points">
                            <mxPoint x="885" y="1295"/>
                        </Array>
                    </mxGeometry>
                </mxCell>
                <mxCell id="71" value="" style="endArrow=none;html=1;exitX=1;exitY=0.5;exitDx=0;exitDy=0;strokeColor=#000000;" parent="1" source="39" edge="1">
                    <mxGeometry width="50" height="50" relative="1" as="geometry">
                        <mxPoint x="915" y="1355" as="sourcePoint"/>
                        <mxPoint x="885" y="1285" as="targetPoint"/>
                        <Array as="points">
                            <mxPoint x="885" y="1345"/>
                        </Array>
                    </mxGeometry>
                </mxCell>
                <mxCell id="72" value="" style="endArrow=none;html=1;entryX=1;entryY=0.5;entryDx=0;entryDy=0;exitX=0.998;exitY=0.572;exitDx=0;exitDy=0;exitPerimeter=0;strokeColor=#000000;" parent="1" source="32" target="13" edge="1">
                    <mxGeometry width="50" height="50" relative="1" as="geometry">
                        <mxPoint x="695" y="1125" as="sourcePoint"/>
                        <mxPoint x="745" y="1075" as="targetPoint"/>
                        <Array as="points">
                            <mxPoint x="715" y="1148"/>
                            <mxPoint x="715" y="1080"/>
                        </Array>
                    </mxGeometry>
                </mxCell>
                <mxCell id="73" value="" style="endArrow=none;html=1;exitX=1;exitY=0.5;exitDx=0;exitDy=0;strokeColor=#000000;" parent="1" source="33" edge="1">
                    <mxGeometry width="50" height="50" relative="1" as="geometry">
                        <mxPoint x="655" y="1235" as="sourcePoint"/>
                        <mxPoint x="715" y="1135" as="targetPoint"/>
                        <Array as="points">
                            <mxPoint x="715" y="1195"/>
                        </Array>
                    </mxGeometry>
                </mxCell>
                <mxCell id="74" value="" style="endArrow=none;html=1;exitX=1;exitY=0.5;exitDx=0;exitDy=0;strokeColor=#000000;" parent="1" source="34" edge="1">
                    <mxGeometry width="50" height="50" relative="1" as="geometry">
                        <mxPoint x="665" y="1295" as="sourcePoint"/>
                        <mxPoint x="715" y="1185" as="targetPoint"/>
                        <Array as="points">
                            <mxPoint x="715" y="1245"/>
                        </Array>
                    </mxGeometry>
                </mxCell>
                <mxCell id="75" value="" style="endArrow=none;html=1;exitX=1;exitY=0.5;exitDx=0;exitDy=0;strokeColor=#000000;" parent="1" source="42" edge="1">
                    <mxGeometry width="50" height="50" relative="1" as="geometry">
                        <mxPoint x="605" y="1295" as="sourcePoint"/>
                        <mxPoint x="715" y="1235" as="targetPoint"/>
                        <Array as="points">
                            <mxPoint x="715" y="1295"/>
                        </Array>
                    </mxGeometry>
                </mxCell>
                <mxCell id="78" value="" style="endArrow=none;html=1;entryX=0.5;entryY=1;entryDx=0;entryDy=0;exitX=0.5;exitY=0;exitDx=0;exitDy=0;strokeColor=#000000;" parent="1" source="17" target="11" edge="1">
                    <mxGeometry width="50" height="50" relative="1" as="geometry">
                        <mxPoint x="185" y="1165" as="sourcePoint"/>
                        <mxPoint x="235" y="1115" as="targetPoint"/>
                    </mxGeometry>
                </mxCell>
                <mxCell id="79" value="" style="endArrow=none;html=1;entryX=0;entryY=0.5;entryDx=0;entryDy=0;exitX=0.5;exitY=0;exitDx=0;exitDy=0;strokeColor=#000000;" parent="1" source="16" target="11" edge="1">
                    <mxGeometry width="50" height="50" relative="1" as="geometry">
                        <mxPoint x="165" y="1115" as="sourcePoint"/>
                        <mxPoint x="215" y="1065" as="targetPoint"/>
                        <Array as="points">
                            <mxPoint x="160" y="1080"/>
                        </Array>
                    </mxGeometry>
                </mxCell>
                <mxCell id="80" value="" style="endArrow=classic;html=1;entryX=0.5;entryY=1;entryDx=0;entryDy=0;exitX=0.5;exitY=1;exitDx=0;exitDy=0;strokeColor=#000000;" parent="1" source="16" target="12" edge="1">
                    <mxGeometry width="50" height="50" relative="1" as="geometry">
                        <mxPoint x="155" y="1295" as="sourcePoint"/>
                        <mxPoint x="435" y="1265" as="targetPoint"/>
                        <Array as="points">
                            <mxPoint x="160" y="1295"/>
                            <mxPoint x="470" y="1295"/>
                        </Array>
                    </mxGeometry>
                </mxCell>
                <mxCell id="81" value="" style="endArrow=classic;html=1;exitX=0;exitY=0.5;exitDx=0;exitDy=0;entryX=0.75;entryY=1;entryDx=0;entryDy=0;strokeColor=#000000;" parent="1" source="42" target="12" edge="1">
                    <mxGeometry width="50" height="50" relative="1" as="geometry">
                        <mxPoint x="505" y="1225" as="sourcePoint"/>
                        <mxPoint x="555" y="1175" as="targetPoint"/>
                        <Array as="points">
                            <mxPoint x="498" y="1295"/>
                        </Array>
                    </mxGeometry>
                </mxCell>
                <mxCell id="84" value="" style="endArrow=classic;html=1;entryX=0.75;entryY=1;entryDx=0;entryDy=0;exitX=0;exitY=0.5;exitDx=0;exitDy=0;strokeColor=#000000;" parent="1" source="32" target="12" edge="1">
                    <mxGeometry width="50" height="50" relative="1" as="geometry">
                        <mxPoint x="525" y="1175" as="sourcePoint"/>
                        <mxPoint x="575" y="1125" as="targetPoint"/>
                        <Array as="points">
                            <mxPoint x="498" y="1145"/>
                        </Array>
                    </mxGeometry>
                </mxCell>
                <mxCell id="85" value="" style="endArrow=classic;html=1;entryX=0.75;entryY=1;entryDx=0;entryDy=0;exitX=0;exitY=0.5;exitDx=0;exitDy=0;strokeColor=#000000;" parent="1" source="33" target="12" edge="1">
                    <mxGeometry width="50" height="50" relative="1" as="geometry">
                        <mxPoint x="515" y="1255" as="sourcePoint"/>
                        <mxPoint x="555" y="1175" as="targetPoint"/>
                        <Array as="points">
                            <mxPoint x="498" y="1195"/>
                        </Array>
                    </mxGeometry>
                </mxCell>
                <mxCell id="86" value="" style="endArrow=classic;html=1;entryX=0.75;entryY=1;entryDx=0;entryDy=0;exitX=0;exitY=0.25;exitDx=0;exitDy=0;strokeColor=#000000;" parent="1" source="34" target="12" edge="1">
                    <mxGeometry width="50" height="50" relative="1" as="geometry">
                        <mxPoint x="495" y="1245" as="sourcePoint"/>
                        <mxPoint x="545" y="1195" as="targetPoint"/>
                        <Array as="points">
                            <mxPoint x="498" y="1235"/>
                        </Array>
                    </mxGeometry>
                </mxCell>
                <mxCell id="87" value="" style="endArrow=classic;html=1;entryX=0.5;entryY=1;entryDx=0;entryDy=0;exitX=0.5;exitY=1;exitDx=0;exitDy=0;strokeColor=#000000;" parent="1" source="16" target="40" edge="1">
                    <mxGeometry width="50" height="50" relative="1" as="geometry">
                        <mxPoint x="385" y="1445" as="sourcePoint"/>
                        <mxPoint x="435" y="1395" as="targetPoint"/>
                        <Array as="points">
                            <mxPoint x="160" y="1395"/>
                            <mxPoint x="960" y="1395"/>
                        </Array>
                    </mxGeometry>
                </mxCell>
                <mxCell id="88" value="" style="endArrow=classic;html=1;entryX=0.5;entryY=1;entryDx=0;entryDy=0;exitX=0.5;exitY=1;exitDx=0;exitDy=0;strokeColor=#000000;" parent="1" source="17" target="40" edge="1">
                    <mxGeometry width="50" height="50" relative="1" as="geometry">
                        <mxPoint x="325" y="1295" as="sourcePoint"/>
                        <mxPoint x="375" y="1245" as="targetPoint"/>
                        <Array as="points">
                            <mxPoint x="310" y="1395"/>
                            <mxPoint x="960" y="1395"/>
                        </Array>
                    </mxGeometry>
                </mxCell>
                <mxCell id="89" value="" style="endArrow=classic;html=1;entryX=0;entryY=0.5;entryDx=0;entryDy=0;exitX=1;exitY=0.5;exitDx=0;exitDy=0;strokeColor=#000000;" parent="1" source="16" target="17" edge="1">
                    <mxGeometry width="50" height="50" relative="1" as="geometry">
                        <mxPoint x="175" y="1165" as="sourcePoint"/>
                        <mxPoint x="225" y="1115" as="targetPoint"/>
                    </mxGeometry>
                </mxCell>
                <mxCell id="90" value="" style="endArrow=classic;html=1;entryX=0;entryY=0.75;entryDx=0;entryDy=0;exitX=0.5;exitY=1;exitDx=0;exitDy=0;strokeColor=#000000;" parent="1" source="16" target="34" edge="1">
                    <mxGeometry width="50" height="50" relative="1" as="geometry">
                        <mxPoint x="275" y="1285" as="sourcePoint"/>
                        <mxPoint x="325" y="1235" as="targetPoint"/>
                        <Array as="points">
                            <mxPoint x="160" y="1255"/>
                        </Array>
                    </mxGeometry>
                </mxCell>
                <mxCell id="93" value="" style="endArrow=none;html=1;entryX=0;entryY=0.5;entryDx=0;entryDy=0;strokeColor=#000000;" parent="1" target="35" edge="1">
                    <mxGeometry width="50" height="50" relative="1" as="geometry">
                        <mxPoint x="725" y="1360" as="sourcePoint"/>
                        <mxPoint x="685" y="1345" as="targetPoint"/>
                        <Array as="points">
                            <mxPoint x="725" y="1145"/>
                        </Array>
                    </mxGeometry>
                </mxCell>
                <mxCell id="95" value="" style="endArrow=none;html=1;entryX=0;entryY=0.5;entryDx=0;entryDy=0;" parent="1" target="36" edge="1">
                    <mxGeometry width="50" height="50" relative="1" as="geometry">
                        <mxPoint x="725" y="1215" as="sourcePoint"/>
                        <mxPoint x="745" y="1205" as="targetPoint"/>
                        <Array as="points">
                            <mxPoint x="725" y="1195"/>
                        </Array>
                    </mxGeometry>
                </mxCell>
                <mxCell id="96" value="" style="endArrow=none;html=1;entryX=0;entryY=0.5;entryDx=0;entryDy=0;" parent="1" target="37" edge="1">
                    <mxGeometry width="50" height="50" relative="1" as="geometry">
                        <mxPoint x="725" y="1265" as="sourcePoint"/>
                        <mxPoint x="755" y="1255" as="targetPoint"/>
                        <Array as="points">
                            <mxPoint x="725" y="1245"/>
                        </Array>
                    </mxGeometry>
                </mxCell>
                <mxCell id="97" value="" style="endArrow=none;html=1;entryX=0;entryY=0.5;entryDx=0;entryDy=0;" parent="1" target="38" edge="1">
                    <mxGeometry width="50" height="50" relative="1" as="geometry">
                        <mxPoint x="725" y="1315" as="sourcePoint"/>
                        <mxPoint x="755" y="1335" as="targetPoint"/>
                        <Array as="points">
                            <mxPoint x="725" y="1295"/>
                        </Array>
                    </mxGeometry>
                </mxCell>
                <mxCell id="104" value="" style="endArrow=none;html=1;entryX=0;entryY=0.5;entryDx=0;entryDy=0;strokeColor=#000000;" parent="1" edge="1">
                    <mxGeometry width="50" height="50" relative="1" as="geometry">
                        <mxPoint x="725" y="1215" as="sourcePoint"/>
                        <mxPoint x="745" y="1195" as="targetPoint"/>
                        <Array as="points">
                            <mxPoint x="725" y="1195"/>
                        </Array>
                    </mxGeometry>
                </mxCell>
                <mxCell id="105" value="" style="endArrow=none;html=1;entryX=0;entryY=0.5;entryDx=0;entryDy=0;strokeColor=#000000;" parent="1" edge="1">
                    <mxGeometry width="50" height="50" relative="1" as="geometry">
                        <mxPoint x="725" y="1265" as="sourcePoint"/>
                        <mxPoint x="745" y="1245" as="targetPoint"/>
                        <Array as="points">
                            <mxPoint x="725" y="1245"/>
                        </Array>
                    </mxGeometry>
                </mxCell>
                <mxCell id="106" value="" style="endArrow=none;html=1;entryX=0;entryY=0.5;entryDx=0;entryDy=0;strokeColor=#000000;" parent="1" edge="1">
                    <mxGeometry width="50" height="50" relative="1" as="geometry">
                        <mxPoint x="725" y="1315" as="sourcePoint"/>
                        <mxPoint x="745" y="1295" as="targetPoint"/>
                        <Array as="points">
                            <mxPoint x="725" y="1295"/>
                        </Array>
                    </mxGeometry>
                </mxCell>
                <mxCell id="108" value="reports.tsx" style="rounded=1;whiteSpace=wrap;html=1;fillColor=#E6E6E6;strokeColor=#1A1A1A;fontColor=#000000;" parent="1" vertex="1">
                    <mxGeometry x="580" y="1325" width="110" height="40" as="geometry"/>
                </mxCell>
                <mxCell id="109" value="" style="endArrow=none;html=1;exitX=1;exitY=0.5;exitDx=0;exitDy=0;strokeColor=#000000;" parent="1" edge="1">
                    <mxGeometry width="50" height="50" relative="1" as="geometry">
                        <mxPoint x="690" y="1350" as="sourcePoint"/>
                        <mxPoint x="715" y="1270" as="targetPoint"/>
                        <Array as="points">
                            <mxPoint x="715" y="1350"/>
                        </Array>
                    </mxGeometry>
                </mxCell>
                <mxCell id="110" value="" style="endArrow=none;html=1;entryX=0;entryY=0.5;entryDx=0;entryDy=0;strokeColor=#000000;" parent="1" edge="1">
                    <mxGeometry width="50" height="50" relative="1" as="geometry">
                        <mxPoint x="710" y="1380" as="sourcePoint"/>
                        <mxPoint x="745" y="1345" as="targetPoint"/>
                        <Array as="points">
                            <mxPoint x="725" y="1380"/>
                            <mxPoint x="725" y="1345"/>
                        </Array>
                    </mxGeometry>
                </mxCell>
                <mxCell id="111" value="" style="endArrow=classic;html=1;strokeColor=#000000;entryX=0.75;entryY=1;entryDx=0;entryDy=0;" parent="1" target="16" edge="1">
                    <mxGeometry width="50" height="50" relative="1" as="geometry">
                        <mxPoint x="720" y="1380" as="sourcePoint"/>
                        <mxPoint x="465" y="1325" as="targetPoint"/>
                        <Array as="points">
                            <mxPoint x="450" y="1380"/>
                            <mxPoint x="187" y="1380"/>
                        </Array>
                    </mxGeometry>
                </mxCell>
                <mxCell id="113" value="" style="endArrow=classic;html=1;entryX=0.75;entryY=1;entryDx=0;entryDy=0;exitX=0;exitY=0.25;exitDx=0;exitDy=0;strokeColor=#000000;" parent="1" target="12" edge="1">
                    <mxGeometry width="50" height="50" relative="1" as="geometry">
                        <mxPoint x="580" y="1345" as="sourcePoint"/>
                        <mxPoint x="497.5" y="1215" as="targetPoint"/>
                        <Array as="points">
                            <mxPoint x="498" y="1345"/>
                        </Array>
                    </mxGeometry>
                </mxCell>
            </root>
        </mxGraphModel>
    </diagram>
</mxfile>